<svg width="386" height="48" viewBox="0 0 386 48" fill="none" xmlns="http://www.w3.org/2000/svg">
<path d="M380 47C383.314 47 386 44.3136 386 41.0001C386 37.6862 383.314 35 380 35C376.686 35 374 37.6862 374 41.0001C374 44.3136 376.686 47 380 47Z" fill="#42C7F3"/>
<path fill-rule="evenodd" clip-rule="evenodd" d="M33 16.7146C33 16.1717 32.8008 15.6966 32.4024 15.2894C32.0704 14.8822 31.5392 14.6787 30.9417 14.8144C30.3441 14.8144 29.8793 14.9501 29.4809 15.3573C29.0825 15.7645 28.8833 16.2395 28.8833 16.7825V20.7186C27.7545 18.6827 26.0282 17.0539 23.7042 15.8323C21.4467 14.6108 18.9235 14 16.1348 14C13.1469 14 10.4245 14.7465 7.96779 16.1717C5.51108 17.5968 3.51912 19.6328 2.12475 22.2116C0.730384 24.7905 0 27.6408 0 30.8983C0 34.1558 0.730384 37.074 2.12475 39.6528C3.51912 42.2316 5.44467 44.2678 7.90142 45.7606C10.3581 47.2538 13.1469 48 16.2012 48C18.9235 48 21.3803 47.3217 23.7042 46.0321C26.0282 44.6746 27.7545 43.046 28.8833 41.146V45.4212C28.8833 45.9642 29.0825 46.4393 29.4809 46.7787C29.8793 47.118 30.3441 47.3217 30.9417 47.3217C31.5392 47.3217 32.004 47.118 32.4024 46.7787C32.8008 46.4393 33 45.9642 33 45.4212V16.7146ZM27.4889 37.7526C26.4266 39.8564 24.9658 41.4853 23.0402 42.6388C21.1811 43.7926 18.99 44.4035 16.666 44.3356C14.2093 44.3356 12.0845 43.7248 10.1589 42.5709C8.23342 41.3496 6.77262 39.7207 5.71026 37.6848C4.64791 35.6488 4.11669 33.2735 4.11669 30.7625C4.11669 28.2516 4.64791 25.9442 5.71026 23.9082C6.77262 21.8723 8.23342 20.3114 10.1589 19.1577C12.0845 18.004 14.2093 17.4611 16.5996 17.4611C18.99 17.4611 21.1147 18.0719 23.0402 19.2256C24.8994 20.3793 26.4266 22.008 27.4889 24.044C28.5513 26.0799 29.0825 28.3873 29.0825 30.8304C29.0825 33.4093 28.5513 35.7167 27.4889 37.7526Z" fill="#545D6A"/>
<path d="M44.4193 46.4597C44.0322 46.7974 43.5809 47 43.0002 47C42.4195 47 41.9678 46.7974 41.5807 46.4597C41.1936 46.122 41 45.6493 41 45.109V1.8908C41 1.35057 41.1936 0.87787 41.5807 0.540227C41.9678 0.202586 42.4195 0 43.0002 0C43.5809 0 44.0322 0.202586 44.4193 0.540227C44.8064 0.87787 45 1.35057 45 1.8908V45.109C44.9355 45.6493 44.7419 46.122 44.4193 46.4597Z" fill="#545D6A"/>
<path d="M57.7184 45.1888C57.7184 45.7255 57.5156 46.1279 57.1775 46.4633C56.8394 46.7988 56.3661 47 55.8928 47C55.4199 47 54.9466 46.7988 54.5409 46.4633C54.2028 46.1279 54 45.6584 54 45.1888V15.878C54 15.3414 54.2028 14.939 54.5409 14.6037C54.879 14.2683 55.3523 14.067 55.8928 14.067C56.4337 14.067 56.8394 14.2683 57.1775 14.6037C57.5156 14.939 57.7184 15.4085 57.7184 15.878V17.8231C60.693 15.2744 63.8029 14 66.9128 14C70.496 14 73.5382 15.2744 76.0396 17.7561C76.6481 18.3597 77.3239 19.1646 78 20.0366C78.6761 19.1646 79.3523 18.3597 79.9604 17.7561C82.4622 15.2744 85.572 14 89.0872 14C92.6704 14 95.7126 15.2744 98.2144 17.7561C100.716 20.2378 102 23.256 102 26.8109V45.1217C102 45.6584 101.797 46.0609 101.459 46.3963C101.121 46.7317 100.648 46.9329 100.175 46.9329C99.7015 46.9329 99.2282 46.7317 98.8901 46.3963C98.5521 46.0609 98.3492 45.5913 98.3492 45.1217V26.878C98.3492 24.3292 97.4706 22.1829 95.645 20.3719C93.8198 18.561 91.6566 17.689 89.1548 17.689C86.6535 17.689 84.4226 18.561 82.5974 20.3719C80.7718 22.1829 79.8932 24.3292 79.8932 26.878V45.1888C79.8932 45.7255 79.6904 46.1279 79.3523 46.4633C79.0142 46.7988 78.5409 47 78 47C77.4591 47 77.0534 46.7988 76.7157 46.4633C76.3776 46.1279 76.1748 45.6584 76.1748 45.1888V26.878C76.1748 24.3292 75.2958 22.1829 73.4706 20.3719C71.645 18.561 69.4818 17.689 66.9128 17.689C64.4115 17.689 62.1802 18.561 60.355 20.3719C58.5294 22.1829 57.6508 24.3292 57.6508 26.878V45.1888H57.7184Z" fill="#545D6A"/>
<path fill-rule="evenodd" clip-rule="evenodd" d="M134.165 40.4268C133.829 40.0914 133.427 39.8901 132.89 39.8901C132.488 39.8901 132.086 40.0243 131.75 40.2255C130.61 41.2314 129.336 41.9693 127.994 42.5059C126.586 43.0426 125.11 43.3109 123.5 43.3109C120.012 43.3109 116.927 42.0364 114.445 39.5547C112.567 37.6767 111.36 35.2621 110.756 32.3109H138.189C138.659 32.3109 139.128 32.1097 139.463 31.7743C139.799 31.4389 140 31.0365 140 30.4999C140 25.9389 138.39 22.0487 135.171 18.8292C131.951 15.6097 128.061 14 123.5 14C118.939 14 115.049 15.6097 111.83 18.8292C108.61 22.0487 107 25.9389 107 30.4999C107 35.0609 108.61 38.9511 111.83 42.1705C115.049 45.39 118.939 47 123.5 47C127.591 47 131.146 45.7255 134.232 43.0426C134.567 42.7072 134.701 42.3047 134.701 41.768C134.701 41.2314 134.5 40.7622 134.165 40.4268ZM132.555 21.4451C134.5 23.3231 135.708 25.7377 136.244 28.6889H110.756C111.293 25.7377 112.567 23.3231 114.445 21.4451C116.927 18.9634 119.945 17.689 123.5 17.689C126.988 17.689 130.073 18.9634 132.555 21.4451Z" fill="#545D6A"/>
<path d="M157.628 30.4663L146.468 17.0244C146.201 16.6884 146 16.2851 146 15.8147C146 15.277 146.201 14.8737 146.535 14.5377C146.869 14.2016 147.337 14 147.871 14C148.406 14 148.807 14.2016 149.208 14.5377L160.034 27.5763L170.859 14.5377C171.26 14.1344 171.661 14 172.196 14C172.73 14 173.131 14.2016 173.465 14.5377C173.799 14.8737 174 15.3442 174 15.8147C174 16.2851 173.866 16.6884 173.599 17.0244L162.372 30.4663L173.666 44.0428C173.866 44.3785 174 44.7818 174 45.1851C174 45.7229 173.799 46.1262 173.465 46.4623C173.131 46.7983 172.664 47 172.196 47C171.728 47 171.26 46.7983 170.993 46.4623L160.034 33.3563L149.141 46.4623C148.807 46.8656 148.406 47 147.938 47C147.47 47 147.003 46.7983 146.602 46.4623C146.267 46.1262 146.067 45.6556 146.067 45.1851C146.067 44.7818 146.201 44.3785 146.401 44.0428L157.628 30.4663Z" fill="#545D6A"/>
<path d="M187.992 47.3906C184.893 47.3906 182.491 46.4401 180.785 44.5391C179.092 42.625 178.246 39.9232 178.246 36.4336C178.246 32.8529 179.105 30.0859 180.824 28.1328C182.556 26.1797 185.017 25.2031 188.207 25.2031C189.236 25.2031 190.264 25.3138 191.293 25.5352C192.322 25.7565 193.129 26.0169 193.715 26.3164L192.719 29.0703C192.003 28.7839 191.221 28.5495 190.375 28.3672C189.529 28.1719 188.78 28.0742 188.129 28.0742C183.78 28.0742 181.605 30.8477 181.605 36.3945C181.605 39.0247 182.133 41.043 183.188 42.4492C184.255 43.8555 185.831 44.5586 187.914 44.5586C189.698 44.5586 191.527 44.1745 193.402 43.4062V46.2773C191.97 47.0195 190.167 47.3906 187.992 47.3906Z" fill="#42C7F3"/>
<path d="M217.977 36.2773C217.977 39.7669 217.098 42.4948 215.34 44.4609C213.582 46.4141 211.154 47.3906 208.055 47.3906C206.141 47.3906 204.441 46.9414 202.957 46.043C201.473 45.1445 200.327 43.8555 199.52 42.1758C198.712 40.4961 198.309 38.5299 198.309 36.2773C198.309 32.7878 199.181 30.0729 200.926 28.1328C202.671 26.1797 205.092 25.2031 208.191 25.2031C211.186 25.2031 213.562 26.1992 215.32 28.1914C217.091 30.1836 217.977 32.8789 217.977 36.2773ZM201.668 36.2773C201.668 39.0117 202.215 41.0951 203.309 42.5273C204.402 43.9596 206.01 44.6758 208.133 44.6758C210.255 44.6758 211.863 43.9661 212.957 42.5469C214.064 41.1146 214.617 39.0247 214.617 36.2773C214.617 33.556 214.064 31.4922 212.957 30.0859C211.863 28.6667 210.242 27.957 208.094 27.957C205.971 27.957 204.37 28.6536 203.289 30.0469C202.208 31.4401 201.668 33.5169 201.668 36.2773Z" fill="#42C7F3"/>
<path d="M239.328 47V33.1523C239.328 31.4076 238.931 30.1055 238.137 29.2461C237.342 28.3867 236.099 27.957 234.406 27.957C232.167 27.957 230.526 28.5625 229.484 29.7734C228.443 30.9844 227.922 32.9831 227.922 35.7695V47H224.68V25.5938H227.316L227.844 28.5234H228C228.664 27.4688 229.595 26.6549 230.793 26.082C231.991 25.4961 233.326 25.2031 234.797 25.2031C237.375 25.2031 239.315 25.8281 240.617 27.0781C241.919 28.3151 242.57 30.3008 242.57 33.0352V47H239.328Z" fill="#42C7F3"/>
<path d="M257.164 44.7148C257.737 44.7148 258.29 44.6758 258.824 44.5977C259.358 44.5065 259.781 44.4154 260.094 44.3242V46.8047C259.742 46.974 259.221 47.1107 258.531 47.2148C257.854 47.332 257.242 47.3906 256.695 47.3906C252.555 47.3906 250.484 45.2096 250.484 40.8477V28.1133H247.418V26.5508L250.484 25.2031L251.852 20.6328H253.727V25.5938H259.938V28.1133H253.727V40.7109C253.727 42 254.033 42.9896 254.645 43.6797C255.257 44.3698 256.096 44.7148 257.164 44.7148Z" fill="#42C7F3"/>
<path d="M275.156 25.2031C276.107 25.2031 276.96 25.2812 277.715 25.4375L277.266 28.4453C276.38 28.25 275.599 28.1523 274.922 28.1523C273.19 28.1523 271.706 28.8555 270.469 30.2617C269.245 31.668 268.633 33.4193 268.633 35.5156V47H265.391V25.5938H268.066L268.438 29.5586H268.594C269.388 28.1654 270.345 27.0911 271.465 26.3359C272.585 25.5807 273.815 25.2031 275.156 25.2031Z" fill="#42C7F3"/>
<path d="M295.883 47L295.238 43.9531H295.082C294.014 45.2943 292.947 46.2057 291.879 46.6875C290.824 47.1562 289.503 47.3906 287.914 47.3906C285.792 47.3906 284.125 46.8438 282.914 45.75C281.716 44.6562 281.117 43.1003 281.117 41.082C281.117 36.7591 284.574 34.4935 291.488 34.2852L295.121 34.168V32.8398C295.121 31.1602 294.757 29.9232 294.027 29.1289C293.311 28.3216 292.159 27.918 290.57 27.918C288.786 27.918 286.768 28.4648 284.516 29.5586L283.52 27.0781C284.574 26.5052 285.727 26.056 286.977 25.7305C288.24 25.4049 289.503 25.2422 290.766 25.2422C293.318 25.2422 295.206 25.8086 296.43 26.9414C297.667 28.0742 298.285 29.8906 298.285 32.3906V47H295.883ZM288.559 44.7148C290.577 44.7148 292.159 44.1615 293.305 43.0547C294.464 41.9479 295.043 40.3984 295.043 38.4062V36.4727L291.801 36.6094C289.223 36.7005 287.361 37.1042 286.215 37.8203C285.082 38.5234 284.516 39.6237 284.516 41.1211C284.516 42.293 284.867 43.1849 285.57 43.7969C286.286 44.4089 287.283 44.7148 288.559 44.7148Z" fill="#42C7F3"/>
<path d="M314.539 47.3906C311.44 47.3906 309.038 46.4401 307.332 44.5391C305.639 42.625 304.793 39.9232 304.793 36.4336C304.793 32.8529 305.652 30.0859 307.371 28.1328C309.103 26.1797 311.564 25.2031 314.754 25.2031C315.783 25.2031 316.811 25.3138 317.84 25.5352C318.868 25.7565 319.676 26.0169 320.262 26.3164L319.266 29.0703C318.549 28.7839 317.768 28.5495 316.922 28.3672C316.076 28.1719 315.327 28.0742 314.676 28.0742C310.327 28.0742 308.152 30.8477 308.152 36.3945C308.152 39.0247 308.68 41.043 309.734 42.4492C310.802 43.8555 312.378 44.5586 314.461 44.5586C316.245 44.5586 318.074 44.1745 319.949 43.4062V46.2773C318.517 47.0195 316.714 47.3906 314.539 47.3906Z" fill="#42C7F3"/>
<path d="M332.961 44.7148C333.534 44.7148 334.087 44.6758 334.621 44.5977C335.155 44.5065 335.578 44.4154 335.891 44.3242V46.8047C335.539 46.974 335.018 47.1107 334.328 47.2148C333.651 47.332 333.039 47.3906 332.492 47.3906C328.352 47.3906 326.281 45.2096 326.281 40.8477V28.1133H323.215V26.5508L326.281 25.2031L327.648 20.6328H329.523V25.5938H335.734V28.1133H329.523V40.7109C329.523 42 329.829 42.9896 330.441 43.6797C331.053 44.3698 331.893 44.7148 332.961 44.7148Z" fill="#42C7F3"/>
<path d="M359.664 36.2773C359.664 39.7669 358.785 42.4948 357.027 44.4609C355.27 46.4141 352.841 47.3906 349.742 47.3906C347.828 47.3906 346.129 46.9414 344.645 46.043C343.16 45.1445 342.014 43.8555 341.207 42.1758C340.4 40.4961 339.996 38.5299 339.996 36.2773C339.996 32.7878 340.868 30.0729 342.613 28.1328C344.358 26.1797 346.78 25.2031 349.879 25.2031C352.874 25.2031 355.25 26.1992 357.008 28.1914C358.779 30.1836 359.664 32.8789 359.664 36.2773ZM343.355 36.2773C343.355 39.0117 343.902 41.0951 344.996 42.5273C346.09 43.9596 347.698 44.6758 349.82 44.6758C351.943 44.6758 353.551 43.9661 354.645 42.5469C355.751 41.1146 356.305 39.0247 356.305 36.2773C356.305 33.556 355.751 31.4922 354.645 30.0859C353.551 28.6667 351.93 27.957 349.781 27.957C347.659 27.957 346.057 28.6536 344.977 30.0469C343.896 31.4401 343.355 33.5169 343.355 36.2773Z" fill="#42C7F3"/>
<path d="M376.133 25.2031C377.083 25.2031 377.936 25.2812 378.691 25.4375L378.242 28.4453C377.357 28.25 376.576 28.1523 375.898 28.1523C374.167 28.1523 372.682 28.8555 371.445 30.2617C370.221 31.668 369.609 33.4193 369.609 35.5156V47H366.367V25.5938H369.043L369.414 29.5586H369.57C370.365 28.1654 371.322 27.0911 372.441 26.3359C373.561 25.5807 374.792 25.2031 376.133 25.2031Z" fill="#42C7F3"/>
</svg>
