<?xml version="1.0" encoding="UTF-8"?>
<svg width="174px" height="48px" viewBox="0 0 174 48" version="1.1" xmlns="http://www.w3.org/2000/svg" xmlns:xlink="http://www.w3.org/1999/xlink">
    <!-- Generator: Sketch 61.2 (89653) - https://sketch.com -->
    <title>Group 6</title>
    <desc>Created with Sketch.</desc>
    <g id="Модуль-контрагентов" stroke="none" stroke-width="1" fill="none" fill-rule="evenodd">
        <g id="Start" transform="translate(-452.000000, -164.000000)" fill="#545D6A" fill-rule="nonzero">
            <g id="AlmexECM_logo-Copy" transform="translate(452.000000, 164.000000)">
                <g id="Group-6">
                    <path d="M32.4024148,15.2894356 C32.800818,15.6966363 33,16.1716705 33,16.7145781 L33,45.4212087 C33,45.9641962 32.800818,46.4393102 32.4024148,46.7786774 C32.0040116,47.1180446 31.5392405,47.3216649 30.9416553,47.3216649 C30.3440701,47.3216649 29.8792599,47.1180446 29.4808958,46.7786774 C29.0824927,46.4393102 28.8833106,45.9641962 28.8833106,45.4212087 L28.8833106,41.1459807 C27.7545082,43.0460377 26.0281597,44.6746009 23.7042259,46.0320696 C21.3802921,47.3216649 18.9235443,48 16.2012074,48 C13.1468744,48 10.3581304,47.2537915 7.90142166,45.7605759 C5.44467382,44.2677595 3.51911587,42.2315565 2.12474781,39.6528051 C0.730383646,37.0739738 0,34.1557754 0,30.8982897 C0,27.6408039 0.730383646,24.7904789 2.12474781,22.2116078 C3.51911587,19.6327765 5.51108086,17.596813 7.96778963,16.1716705 C10.4245375,14.7465279 13.1468744,14 16.1348004,14 C18.9235443,14 21.4466601,14.6107811 23.7042259,15.8323432 C26.0281597,17.0539054 27.7545082,18.6826682 28.8833106,20.7185918 L28.8833106,16.7824515 C28.8833106,16.2395439 29.0824927,15.7644698 29.4808958,15.357309 C29.8792599,14.9501083 30.3440701,14.8143615 30.9416553,14.8143615 C31.5392405,14.6786545 32.0704187,14.8822349 32.4024148,15.2894356 Z M23.0402337,42.6387971 C24.9658033,41.4853479 26.4265628,39.8564254 27.4889191,37.7526283 C28.5513145,35.7166648 29.0824927,33.4092874 29.0824927,30.8304162 C29.0824927,28.3872919 28.5513145,26.0799145 27.4889191,24.043951 C26.4265628,22.0080274 24.8993963,20.3792645 23.0402337,19.2255758 C21.1147031,18.0718871 18.9899513,17.4611061 16.5996106,17.4611061 C14.2092698,17.4611061 12.084518,18.0040137 10.1589484,19.1577024 C8.23341777,20.3113911 6.77261923,21.8722805 5.71026291,23.908244 C4.64790658,25.9441676 4.11668935,28.251585 4.11668935,30.7625428 C4.11668935,33.2735405 4.64790658,35.6488313 5.71026291,37.6847549 C6.77261923,39.7206785 8.23341777,41.349601 10.1589484,42.5709236 C12.084518,43.724772 14.2092698,44.335633 16.6659785,44.335633 C18.9899513,44.4035064 21.181071,43.7926455 23.0402337,42.6387971 Z" id="Shape"></path>
                    <path d="M44.4192997,46.4597016 C44.0321662,46.7973881 43.58089,47 43.0001898,47 C42.4194895,47 41.9678338,46.7973881 41.5807003,46.4597016 C41.1935668,46.1220151 41,45.649254 41,45.1089557 L41,1.89079802 C41,1.35057115 41.1935668,0.877869659 41.5807003,0.540226871 C41.9678338,0.202585673 42.4194895,0 43.0001898,0 C43.58089,0 44.0321662,0.202585673 44.4192997,0.540226871 C44.8064332,0.877869659 45,1.35057115 45,1.89079802 L45,45.1089557 C44.9354777,45.649254 44.741911,46.1220151 44.4192997,46.4597016 Z" id="Path"></path>
                    <path d="M57.7184051,45.188797 C57.7184051,45.7254498 57.5155613,46.1279393 57.1774883,46.4633473 C56.8394153,46.7987552 56.3661132,47 55.892811,47 C55.4199065,47 54.9466044,46.7987552 54.5409168,46.4633473 C54.2028438,46.1279393 54,45.6583682 54,45.188797 L54,15.8780084 C54,15.3414345 54.2028438,14.9390239 54.5409168,14.6036554 C54.8789898,14.2682869 55.3522919,14.0670421 55.892811,14.0670421 C56.4337278,14.0670421 56.8394153,14.2682869 57.1774883,14.6036554 C57.5155613,14.9390239 57.7184051,15.4085161 57.7184051,15.8780084 L57.7184051,17.8231378 C60.6930496,15.2743529 63.8029233,14 66.9127971,14 C70.495973,14 73.5382321,15.2743529 76.0395744,17.7560562 C76.6481058,18.3597116 77.323854,19.1646118 78,20.0365541 C78.676146,19.1646118 79.3522919,18.3597116 79.9604256,17.7560562 C82.4621657,15.2743529 85.5720394,14 89.0872029,14 C92.6703788,14 95.712638,15.2743529 98.214378,17.7560562 C100.71572,20.2377594 102,23.2560364 102,26.8108873 L102,45.1217154 C102,45.6583682 101.797156,46.0608577 101.459083,46.3962657 C101.121408,46.7316736 100.648106,46.9329184 100.174804,46.9329184 C99.7015014,46.9329184 99.2281993,46.7316736 98.8901263,46.3962657 C98.5520533,46.0608577 98.3492095,45.5912866 98.3492095,45.1217154 L98.3492095,26.8779689 C98.3492095,24.3292235 97.4706175,22.1828888 95.6450234,20.3719226 C93.819827,18.5609564 91.6565576,17.6889746 89.1548175,17.6889746 C86.6534752,17.6889746 84.4225912,18.5609564 82.5973948,20.3719226 C80.7718007,22.1828888 79.8932087,24.3292235 79.8932087,26.8779689 L79.8932087,45.188797 C79.8932087,45.7254498 79.6903649,46.1279393 79.3522919,46.4633473 C79.014219,46.7987552 78.5409168,47 78,47 C77.4590832,47 77.0533956,46.7987552 76.7157204,46.4633473 C76.3776474,46.1279393 76.1748036,45.6583682 76.1748036,45.188797 L76.1748036,26.8779689 C76.1748036,24.3292235 75.2958139,22.1828888 73.4706175,20.3719226 C71.6450234,18.5609564 69.481754,17.6889746 66.9127971,17.6889746 C64.4114547,17.6889746 62.180173,18.5609564 60.3549766,20.3719226 C58.5293825,22.1828888 57.6507905,24.3292235 57.6507905,26.8779689 L57.6507905,45.188797 L57.7184051,45.188797 Z" id="Path"></path>
                    <path d="M132.890493,39.8901404 C133.426754,39.8901404 133.829246,40.0913852 134.164656,40.4267932 C134.500066,40.7622011 134.701312,41.2313777 134.701312,41.7680304 C134.701312,42.3046832 134.567148,42.7071727 134.231738,43.0425807 C131.146361,45.7254498 127.59141,47 123.500197,47 C118.939016,47 115.048655,45.3900418 111.829509,42.17052 C108.609968,38.9510771 107,35.0608577 107,30.4999014 C107,25.938945 108.609968,22.0487256 111.829509,18.8292433 C115.048655,15.6097214 118.939016,14 123.500197,14 C128.060984,14 131.951345,15.6097214 135.170886,18.8292433 C138.390427,22.0487256 140,25.938945 140,30.4999014 C140,31.0364752 139.798754,31.4389253 139.463344,31.7742938 C139.128329,32.1096623 138.658755,32.3108676 138.189181,32.3108676 L110.756197,32.3108676 C111.359935,35.262063 112.567016,37.6767241 114.445312,39.5547325 C116.926951,42.0363568 120.012328,43.310907 123.500197,43.310907 C125.109771,43.310907 126.585574,43.0425807 127.993902,42.5059279 C129.335541,41.9692752 130.609705,41.2313777 131.750099,40.2255484 C132.085509,40.0243036 132.488001,39.8901404 132.890493,39.8901404 Z M136.244198,28.6889351 C135.707542,25.7377397 134.500066,23.323118 132.555083,21.4450702 C130.073443,18.963367 126.988066,17.6889746 123.500197,17.6889746 C119.945246,17.6889746 116.926951,18.963367 114.445312,21.4450702 C112.567016,23.323118 111.292853,25.7377397 110.756197,28.6889351 L136.244198,28.6889351 Z" id="Shape"></path>
                    <path d="M157.627975,30.4663316 L146.46784,17.024425 C146.200503,16.6883734 146,16.2851431 146,15.814655 C146,15.2769882 146.200503,14.8737184 146.534674,14.5376668 C146.868845,14.2016152 147.336684,14 147.871358,14 C148.406032,14 148.806644,14.2016152 149.207649,14.5376668 L160.033614,27.5763035 L170.859185,14.5376668 C171.26019,14.1344365 171.661195,14 172.195869,14 C172.73015,14 173.131155,14.2016152 173.465326,14.5376668 C173.799497,14.8737184 174,15.3442065 174,15.814655 C174,16.2851431 173.866332,16.6883734 173.598995,17.024425 L162.372418,30.4663316 L173.665829,44.0427932 C173.866332,44.378489 174,44.7817984 174,45.1851077 C174,45.7228536 173.799497,46.126163 173.465326,46.4622541 C173.131155,46.7983453 172.663709,47 172.195869,47 C171.72803,47 171.26019,46.7983453 170.992853,46.4622541 L160.033614,33.3563201 L149.140815,46.4622541 C148.806644,46.8655635 148.406032,47 147.938192,47 C147.470353,47 147.002513,46.7983453 146.601508,46.4622541 C146.267337,46.126163 146.066834,45.6556354 146.066834,45.1851077 C146.066834,44.7817984 146.200503,44.378489 146.401005,44.0427932 L157.627975,30.4663316 Z" id="Path"></path>
                </g>
            </g>
        </g>
    </g>
</svg>