<svg width="302" height="61" viewBox="0 0 302 61" fill="none" xmlns="http://www.w3.org/2000/svg">
<path d="M296 53C299.314 53 302 50.3136 302 47.0001C302 43.6862 299.314 41 296 41C292.686 41 290 43.6862 290 47.0001C290 50.3136 292.686 53 296 53Z" fill="#42C7F3"/>
<path fill-rule="evenodd" clip-rule="evenodd" d="M33 16.7146C33 16.1717 32.8008 15.6966 32.4024 15.2894C32.0704 14.8822 31.5392 14.6787 30.9417 14.8144C30.3441 14.8144 29.8793 14.9501 29.4809 15.3573C29.0825 15.7645 28.8833 16.2395 28.8833 16.7825V20.7186C27.7545 18.6827 26.0282 17.0539 23.7042 15.8323C21.4467 14.6108 18.9235 14 16.1348 14C13.1469 14 10.4245 14.7465 7.96779 16.1717C5.51108 17.5968 3.51912 19.6328 2.12475 22.2116C0.730384 24.7905 0 27.6408 0 30.8983C0 34.1558 0.730384 37.074 2.12475 39.6528C3.51912 42.2316 5.44467 44.2678 7.90142 45.7606C10.3581 47.2538 13.1469 48 16.2012 48C18.9235 48 21.3803 47.3217 23.7042 46.0321C26.0282 44.6746 27.7545 43.046 28.8833 41.146V45.4212C28.8833 45.9642 29.0825 46.4393 29.4809 46.7787C29.8793 47.118 30.3441 47.3217 30.9417 47.3217C31.5392 47.3217 32.004 47.118 32.4024 46.7787C32.8008 46.4393 33 45.9642 33 45.4212V16.7146ZM27.4889 37.7526C26.4266 39.8564 24.9658 41.4853 23.0402 42.6388C21.1811 43.7926 18.99 44.4035 16.666 44.3356C14.2093 44.3356 12.0845 43.7248 10.1589 42.5709C8.23342 41.3496 6.77262 39.7207 5.71026 37.6848C4.64791 35.6488 4.11669 33.2735 4.11669 30.7625C4.11669 28.2516 4.64791 25.9442 5.71026 23.9082C6.77262 21.8723 8.23342 20.3114 10.1589 19.1577C12.0845 18.004 14.2093 17.4611 16.5996 17.4611C18.99 17.4611 21.1147 18.0719 23.0402 19.2256C24.8994 20.3793 26.4266 22.008 27.4889 24.044C28.5513 26.0799 29.0825 28.3873 29.0825 30.8304C29.0825 33.4093 28.5513 35.7167 27.4889 37.7526Z" fill="#545D6A"/>
<path d="M44.4193 46.4597C44.0322 46.7974 43.5809 47 43.0002 47C42.4195 47 41.9678 46.7974 41.5807 46.4597C41.1936 46.122 41 45.6493 41 45.109V1.8908C41 1.35057 41.1936 0.87787 41.5807 0.540227C41.9678 0.202586 42.4195 0 43.0002 0C43.5809 0 44.0322 0.202586 44.4193 0.540227C44.8064 0.87787 45 1.35057 45 1.8908V45.109C44.9355 45.6493 44.7419 46.122 44.4193 46.4597Z" fill="#545D6A"/>
<path d="M57.7184 45.1888C57.7184 45.7255 57.5156 46.1279 57.1775 46.4633C56.8394 46.7988 56.3661 47 55.8928 47C55.4199 47 54.9466 46.7988 54.5409 46.4633C54.2028 46.1279 54 45.6584 54 45.1888V15.878C54 15.3414 54.2028 14.939 54.5409 14.6037C54.879 14.2683 55.3523 14.067 55.8928 14.067C56.4337 14.067 56.8394 14.2683 57.1775 14.6037C57.5156 14.939 57.7184 15.4085 57.7184 15.878V17.8231C60.693 15.2744 63.8029 14 66.9128 14C70.496 14 73.5382 15.2744 76.0396 17.7561C76.6481 18.3597 77.3239 19.1646 78 20.0366C78.6761 19.1646 79.3523 18.3597 79.9604 17.7561C82.4622 15.2744 85.572 14 89.0872 14C92.6704 14 95.7126 15.2744 98.2144 17.7561C100.716 20.2378 102 23.256 102 26.8109V45.1217C102 45.6584 101.797 46.0609 101.459 46.3963C101.121 46.7317 100.648 46.9329 100.175 46.9329C99.7015 46.9329 99.2282 46.7317 98.8901 46.3963C98.5521 46.0609 98.3492 45.5913 98.3492 45.1217V26.878C98.3492 24.3292 97.4706 22.1829 95.645 20.3719C93.8198 18.561 91.6566 17.689 89.1548 17.689C86.6535 17.689 84.4226 18.561 82.5974 20.3719C80.7718 22.1829 79.8932 24.3292 79.8932 26.878V45.1888C79.8932 45.7255 79.6904 46.1279 79.3523 46.4633C79.0142 46.7988 78.5409 47 78 47C77.4591 47 77.0534 46.7988 76.7157 46.4633C76.3776 46.1279 76.1748 45.6584 76.1748 45.1888V26.878C76.1748 24.3292 75.2958 22.1829 73.4706 20.3719C71.645 18.561 69.4818 17.689 66.9128 17.689C64.4115 17.689 62.1802 18.561 60.355 20.3719C58.5294 22.1829 57.6508 24.3292 57.6508 26.878V45.1888H57.7184Z" fill="#545D6A"/>
<path fill-rule="evenodd" clip-rule="evenodd" d="M134.165 40.4268C133.829 40.0914 133.427 39.8901 132.89 39.8901C132.488 39.8901 132.086 40.0243 131.75 40.2255C130.61 41.2314 129.336 41.9693 127.994 42.5059C126.586 43.0426 125.11 43.3109 123.5 43.3109C120.012 43.3109 116.927 42.0364 114.445 39.5547C112.567 37.6767 111.36 35.2621 110.756 32.3109H138.189C138.659 32.3109 139.128 32.1097 139.463 31.7743C139.799 31.4389 140 31.0365 140 30.4999C140 25.9389 138.39 22.0487 135.171 18.8292C131.951 15.6097 128.061 14 123.5 14C118.939 14 115.049 15.6097 111.83 18.8292C108.61 22.0487 107 25.9389 107 30.4999C107 35.0609 108.61 38.9511 111.83 42.1705C115.049 45.39 118.939 47 123.5 47C127.591 47 131.146 45.7255 134.232 43.0426C134.567 42.7072 134.701 42.3047 134.701 41.768C134.701 41.2314 134.5 40.7622 134.165 40.4268ZM132.555 21.4451C134.5 23.3231 135.708 25.7377 136.244 28.6889H110.756C111.293 25.7377 112.567 23.3231 114.445 21.4451C116.927 18.9634 119.945 17.689 123.5 17.689C126.988 17.689 130.073 18.9634 132.555 21.4451Z" fill="#545D6A"/>
<path d="M157.628 30.4663L146.468 17.0244C146.201 16.6884 146 16.2851 146 15.8147C146 15.277 146.201 14.8737 146.535 14.5377C146.869 14.2016 147.337 14 147.871 14C148.406 14 148.807 14.2016 149.208 14.5377L160.034 27.5763L170.859 14.5377C171.26 14.1344 171.661 14 172.196 14C172.73 14 173.131 14.2016 173.465 14.5377C173.799 14.8737 174 15.3442 174 15.8147C174 16.2851 173.866 16.6884 173.599 17.0244L162.372 30.4663L173.666 44.0428C173.866 44.3785 174 44.7818 174 45.1851C174 45.7229 173.799 46.1262 173.465 46.4623C173.131 46.7983 172.664 47 172.196 47C171.728 47 171.26 46.7983 170.993 46.4623L160.034 33.3563L149.141 46.4623C148.807 46.8656 148.406 47 147.938 47C147.47 47 147.003 46.7983 146.602 46.4623C146.267 46.1262 146.067 45.6556 146.067 45.1851C146.067 44.7818 146.201 44.3785 146.401 44.0428L157.628 30.4663Z" fill="#545D6A"/>
<path d="M204.853 38.0035C204.853 40.9689 203.735 43.256 201.5 44.8647C199.265 46.4734 196.127 47.2777 192.088 47.2777C187.814 47.2777 184.48 46.609 182.088 45.2717V40.7945C183.637 41.5698 185.294 42.1803 187.059 42.6261C188.843 43.0718 190.559 43.2947 192.206 43.2947C194.755 43.2947 196.716 42.8974 198.088 42.1028C199.461 41.2887 200.147 40.058 200.147 38.4105C200.147 37.1701 199.598 36.1138 198.5 35.2416C197.422 34.35 195.304 33.3034 192.147 32.1018C189.147 30.997 187.01 30.0376 185.735 29.2236C184.48 28.3901 183.539 27.4501 182.912 26.4035C182.304 25.3569 182 24.1068 182 22.6531C182 20.056 183.069 18.0112 185.206 16.5188C187.343 15.007 190.275 14.2511 194 14.2511C197.471 14.2511 200.863 14.9489 204.176 16.3444L202.441 20.2692C199.206 18.9512 196.275 18.2922 193.647 18.2922C191.333 18.2922 189.588 18.6508 188.412 19.3679C187.235 20.085 186.647 21.0735 186.647 22.3333C186.647 23.1861 186.863 23.9129 187.294 24.5138C187.745 25.1146 188.461 25.6864 189.441 26.2291C190.422 26.7718 192.304 27.5567 195.088 28.584C198.912 29.9601 201.49 31.3459 202.824 32.7414C204.176 34.1368 204.853 35.8909 204.853 38.0035Z" fill="#42C7F3"/>
<path d="M217.706 46.6962H212.824V14.8326H217.706V46.6962ZM212.412 6.19799C212.412 5.09323 212.686 4.28889 213.235 3.78496C213.784 3.26165 214.471 3 215.294 3C216.078 3 216.755 3.26165 217.324 3.78496C217.892 4.30827 218.176 5.11261 218.176 6.19799C218.176 7.28338 217.892 8.09741 217.324 8.6401C216.755 9.16341 216.078 9.42506 215.294 9.42506C214.471 9.42506 213.784 9.16341 213.235 8.6401C212.686 8.09741 212.412 7.28338 212.412 6.19799Z" fill="#42C7F3"/>
<path d="M254.441 14.8326V17.8852L248.471 18.583C249.02 19.2613 249.51 20.1529 249.941 21.2576C250.373 22.343 250.588 23.5738 250.588 24.9499C250.588 28.0703 249.51 30.5609 247.353 32.4216C245.196 34.2822 242.235 35.2125 238.471 35.2125C237.51 35.2125 236.608 35.135 235.765 34.9799C233.686 36.0653 232.647 37.4317 232.647 39.0792C232.647 39.9514 233.01 40.6007 233.735 41.0271C234.461 41.4341 235.706 41.6376 237.471 41.6376H243.176C246.667 41.6376 249.343 42.3644 251.206 43.818C253.088 45.2717 254.029 47.3843 254.029 50.1559C254.029 53.6834 252.598 56.3678 249.735 58.209C246.873 60.0697 242.696 61 237.206 61C232.99 61 229.735 60.2247 227.441 58.6742C225.167 57.1236 224.029 54.9335 224.029 52.1038C224.029 50.1656 224.657 48.4891 225.912 47.0742C227.167 45.6593 228.931 44.6999 231.206 44.196C230.382 43.8277 229.686 43.256 229.118 42.4807C228.569 41.7054 228.294 40.8042 228.294 39.7769C228.294 38.614 228.608 37.5965 229.235 36.7243C229.863 35.8521 230.853 35.009 232.206 34.195C230.539 33.5166 229.176 32.3634 228.118 30.7353C227.078 29.1073 226.559 27.2466 226.559 25.1534C226.559 21.6647 227.618 18.9803 229.735 17.1003C231.853 15.2008 234.853 14.2511 238.735 14.2511C240.422 14.2511 241.941 14.4449 243.294 14.8326H254.441ZM228.735 52.0456C228.735 53.7706 229.471 55.0789 230.941 55.9704C232.412 56.862 234.52 57.3078 237.265 57.3078C241.363 57.3078 244.392 56.6972 246.353 55.4762C248.333 54.2745 249.324 52.6368 249.324 50.5629C249.324 48.8379 248.784 47.6363 247.706 46.9579C246.627 46.2989 244.598 45.9694 241.618 45.9694H235.765C233.549 45.9694 231.824 46.4927 230.588 47.5393C229.353 48.586 228.735 50.0881 228.735 52.0456ZM231.382 25.0371C231.382 27.266 232.02 28.9522 233.294 30.0957C234.569 31.2393 236.343 31.811 238.618 31.811C243.382 31.811 245.765 29.524 245.765 24.9499C245.765 20.1626 243.353 17.7689 238.529 17.7689C236.235 17.7689 234.471 18.3794 233.235 19.6005C232 20.8216 231.382 22.6338 231.382 25.0371Z" fill="#42C7F3"/>
<path d="M283.118 46.6962V26.0837C283.118 23.4865 282.52 21.5484 281.324 20.2692C280.127 18.99 278.255 18.3504 275.706 18.3504C272.333 18.3504 269.863 19.2516 268.294 21.0541C266.725 22.8566 265.941 25.8317 265.941 29.9794V46.6962H261.059V14.8326H265.029L265.824 19.1935H266.059C267.059 17.6236 268.461 16.4122 270.265 15.5594C272.069 14.6872 274.078 14.2511 276.294 14.2511C280.176 14.2511 283.098 15.1815 285.059 17.0421C287.02 18.8834 288 21.8391 288 25.9093V46.6962H283.118Z" fill="#42C7F3"/>
</svg>
