<svg width="24" height="24" viewBox="0 0 24 24" fill="none" xmlns="http://www.w3.org/2000/svg">
<mask id="mask0" mask-type="alpha" maskUnits="userSpaceOnUse" x="3" y="0" width="18" height="24">
<path fill-rule="evenodd" clip-rule="evenodd" d="M14.0109 0.499219L20.5219 7.07344C20.8359 7.38984 21 7.81641 21 8.26172V22.3125C21 23.2453 20.2687 24 19.3359 24H4.73438C3.80156 24 3.02344 23.2453 3.02344 22.3125V1.6875C3.02344 0.754687 3.80156 0 4.73438 0H12.8203C13.057 0 13.2891 0.0515625 13.5 0.145313L13.515 0.151872C13.5319 0.159168 13.5494 0.166784 13.5656 0.175781C13.6008 0.192188 13.6336 0.210938 13.6664 0.229687C13.7906 0.304688 13.9055 0.39375 14.0109 0.499219ZM20 8L13 1V8H20ZM20 23H4V1H11.9872V7C11.9872 7.995 12.8398 8.8 13.862 8.8H20V23ZM13.2317 11C13.6564 11 14 11.2236 14 11.5C14 11.7764 13.6564 12 13.2317 12H7.76829C7.3436 12 7 11.7764 7 11.5C7 11.2236 7.3436 11 7.76829 11H13.2317ZM17 14.5C17 14.2236 16.6904 14 16.3077 14H7.69231C7.30962 14 7 14.2236 7 14.5C7 14.7764 7.30962 15 7.69231 15H16.3077C16.6904 15 17 14.7764 17 14.5ZM14.2653 17C14.6714 17 15 17.2236 15 17.5C15 17.7764 14.6714 18 14.2653 18H7.73469C7.32857 18 7 17.7764 7 17.5C7 17.2236 7.32857 17 7.73469 17H14.2653Z" fill="white"/>
</mask>
<g mask="url(#mask0)">
<path fill-rule="evenodd" clip-rule="evenodd" d="M12 72.1875C45.1371 72.1875 72 45.3246 72 12.1875C72 -20.9496 45.1371 -47.8125 12 -47.8125C-21.1371 -47.8125 -48 -20.9496 -48 12.1875C-48 45.3246 -21.1371 72.1875 12 72.1875Z" fill="#1890FF"/>
</g>
</svg>
